<?xml version="1.0" standalone="no"?>
<!DOCTYPE svg PUBLIC "-//W3C//DTD SVG 20010904//EN"
 "http://www.w3.org/TR/2001/REC-SVG-20010904/DTD/svg10.dtd">
<svg version="1.0" xmlns="http://www.w3.org/2000/svg"
 width="433.000000pt" height="577.000000pt" viewBox="0 0 433.000000 577.000000"
 preserveAspectRatio="xMidYMid meet">
<metadata>
Created by potrace 1.16, written by Peter Selinger 2001-2019
</metadata>
<g transform="translate(0.000000,577.000000) scale(0.100000,-0.100000)"
fill="#000000" stroke="none">
<path d="M2040 5296 c-222 -40 -434 -155 -597 -325 -98 -102 -130 -153 -205
-321 -78 -176 -134 -332 -178 -495 -176 -664 -237 -1070 -212 -1436 6 -92 7
-172 2 -199 -5 -25 -9 -67 -10 -95 -1 -70 -16 -93 -86 -129 -34 -17 -67 -36
-75 -42 -32 -26 -292 -155 -393 -195 -105 -42 -113 -47 -198 -132 l-89 -89 2
-159 c0 -88 5 -157 9 -154 16 10 20 -31 10 -85 -12 -62 -12 -72 0 -45 5 11 9
32 9 47 1 15 5 29 10 33 6 3 9 -22 7 -62 -2 -38 -1 -47 1 -20 4 45 23 68 23
27 0 -11 6 -19 12 -17 9 1 12 -14 11 -53 -1 -42 0 -47 5 -22 11 51 27 37 25
-21 -1 -37 0 -44 5 -23 9 41 26 35 33 -11 3 -21 7 -30 8 -20 2 36 21 5 22 -36
0 -30 3 -36 8 -23 13 33 26 -2 24 -64 -1 -47 0 -49 5 -17 11 59 26 44 33 -30
4 -49 6 -56 7 -26 1 23 6 44 11 47 15 10 22 -25 17 -88 l-5 -61 12 53 c8 38
15 50 23 42 7 -7 7 -32 -1 -85 -14 -85 -2 -92 15 -10 11 53 24 69 33 43 2 -7
0 -26 -5 -43 -4 -16 -8 -46 -7 -65 0 -29 2 -31 9 -15 5 11 11 37 15 58 10 63
27 32 20 -37 -3 -33 -1 -81 4 -106 l10 -45 -3 45 c-2 25 1 66 6 93 12 56 33
65 25 10 -3 -21 -9 -56 -12 -78 l-6 -40 15 34 c9 18 16 43 16 55 0 11 5 28 10
36 7 11 10 6 10 -20 1 -31 2 -32 10 -12 12 27 30 29 37 2 5 -20 23 -28 23 -10
0 6 5 10 10 10 6 0 10 -11 10 -24 0 -14 5 -28 10 -31 6 -3 10 4 10 16 0 18 2
19 15 9 8 -7 15 -22 15 -34 1 -21 1 -21 15 -2 19 25 26 17 28 -27 2 -42 12
-40 21 5 8 42 24 25 28 -32 l4 -45 8 42 c11 54 26 46 27 -15 1 -63 17 -104 18
-45 1 23 4 48 7 57 12 32 24 15 24 -34 0 -27 5 -50 10 -50 6 0 10 15 10 34 0
19 5 38 11 42 7 4 10 -16 7 -65 -1 -39 0 -71 3 -71 4 0 12 28 19 62 10 55 13
60 25 45 10 -13 14 -15 18 -5 2 7 3 -21 1 -62 -3 -80 1 -72 11 23 8 76 25 73
27 -5 1 -43 2 -50 5 -23 5 58 12 85 22 85 6 0 12 -10 14 -22 l4 -23 8 23 c9
26 21 28 34 5 8 -16 11 -14 22 12 l13 30 4 -28 c5 -36 19 -35 27 3 8 36 25 40
25 5 0 -14 5 -25 10 -25 6 0 10 8 10 18 0 10 7 27 15 38 13 18 14 17 15 -19 0
-44 15 -42 23 3 8 39 25 39 19 0 -7 -48 16 -35 29 15 16 65 33 69 24 6 -9 -70
10 -67 25 4 14 70 35 74 25 6 -4 -29 -3 -51 3 -55 6 -3 13 19 17 54 9 78 25
87 25 15 0 -67 15 -65 25 3 11 85 25 84 25 -3 1 -85 12 -80 24 10 13 90 28 88
23 -3 -3 -48 -1 -80 4 -76 5 3 9 15 9 26 0 42 22 148 31 148 5 0 6 -33 2 -75
-7 -93 12 -104 21 -12 11 98 26 105 26 13 0 -93 10 -92 26 2 l11 67 3 -70 c2
-38 3 -76 3 -82 -1 -7 3 -10 8 -7 5 3 9 38 9 79 0 41 5 77 10 80 6 4 10 -30
10 -95 0 -65 4 -99 10 -95 6 3 10 44 10 90 0 46 4 87 10 90 6 4 10 -27 10 -85
0 -51 4 -89 9 -86 5 3 9 34 10 67 1 72 8 102 23 93 6 -4 7 -21 3 -41 -4 -24
-3 -33 4 -28 6 3 11 15 11 25 0 28 11 51 21 44 5 -3 9 -14 9 -25 0 -10 5 -19
10 -19 6 0 10 7 10 16 0 12 6 15 23 10 12 -3 28 -6 35 -6 6 0 12 -7 12 -15 0
-8 6 -14 12 -12 7 1 14 -9 16 -22 3 -16 6 -20 12 -12 4 8 10 -4 15 -31 l9 -43
3 35 c6 59 13 68 27 41 13 -23 14 -23 24 -5 11 18 12 18 18 -5 7 -23 8 -23 21
-5 14 18 15 18 24 1 9 -15 13 -16 26 -6 12 11 17 10 25 -5 9 -16 11 -16 22 0
12 16 13 16 20 -1 5 -13 9 -15 20 -6 9 7 17 8 20 2 3 -5 24 -7 45 -5 31 3 41
0 44 -14 4 -14 6 -13 12 5 8 25 21 30 29 11 3 -10 9 -8 19 5 8 9 17 17 21 17
3 0 6 -8 6 -17 1 -16 2 -16 16 2 13 17 16 18 24 5 5 -8 10 -22 11 -30 1 -8 4
-1 8 15 7 35 25 40 29 7 5 -33 22 -27 22 8 0 38 15 39 28 3 l10 -28 1 33 c1
35 20 44 28 12 7 -28 23 -25 23 5 0 34 18 32 27 -2 l7 -28 9 35 c8 30 10 33
21 18 11 -15 13 -15 24 0 9 15 12 15 21 2 9 -12 11 -12 17 3 7 18 34 24 34 7
0 -5 5 -10 10 -10 6 0 10 7 10 15 0 8 5 15 10 15 6 0 10 -4 10 -10 0 -5 5 -10
10 -10 6 0 10 7 10 15 0 8 7 15 15 15 8 0 15 -7 15 -15 0 -8 5 -15 10 -15 6 0
10 9 10 20 0 27 20 25 28 -2 5 -22 6 -21 18 7 l12 30 10 -35 10 -35 1 37 c1
20 6 40 11 43 6 3 10 1 10 -4 0 -19 18 -12 23 10 3 12 10 18 16 15 6 -4 18 -2
28 3 10 5 35 17 55 25 20 9 40 21 43 26 3 5 12 7 19 4 8 -3 16 4 19 15 3 14
10 19 21 15 11 -4 16 0 16 14 0 11 7 25 15 32 12 10 15 9 16 -6 0 -12 6 -7 16
16 l15 35 11 -25 c11 -25 11 -25 15 10 5 52 22 62 23 15 l1 -40 10 50 c11 61
28 83 28 37 0 -50 19 -37 22 16 4 55 22 59 26 5 5 -72 16 -68 22 7 l5 75 8
-50 c16 -99 21 -102 27 -15 l5 85 13 -90 c19 -126 23 -127 17 -4 -6 121 5 150
21 57 l12 -63 1 72 c0 39 6 75 11 78 6 3 10 -1 10 -10 0 -11 5 -15 15 -11 12
4 15 -6 15 -62 0 -47 3 -63 10 -52 5 8 10 38 10 65 0 79 17 90 26 17 3 -35 8
-61 10 -60 1 2 5 35 9 73 8 98 25 107 26 15 l2 -75 11 80 c11 82 26 102 37 49
l6 -29 7 30 c15 59 19 60 31 15 l12 -45 8 48 c9 59 15 54 25 -20 l7 -58 2 73
c1 76 20 102 22 30 0 -24 4 -65 9 -93 6 -41 7 -33 6 47 -1 70 3 100 13 110 11
10 14 10 18 1 7 -20 20 -15 28 10 l7 22 8 -25 8 -25 1 27 c1 20 11 33 43 52
49 29 57 27 34 -8 -9 -14 -16 -33 -15 -43 0 -14 3 -12 12 7 6 14 17 31 25 38
7 8 19 26 27 42 8 15 29 35 48 43 19 9 40 24 47 32 15 18 113 85 125 85 4 0
24 14 45 30 l39 31 4 -23 c2 -13 5 15 6 62 l1 86 -47 35 c-27 20 -64 45 -83
55 -19 10 -71 49 -115 85 -116 95 -348 229 -681 392 l-61 30 9 36 c12 47 34
168 59 311 29 173 27 437 -6 669 -18 126 -24 208 -22 282 9 247 -20 449 -98
686 -47 140 -66 182 -121 268 -18 30 -34 58 -34 62 0 25 -269 279 -312 295
-10 4 -34 19 -52 33 -53 40 -149 83 -296 132 -122 41 -146 46 -245 49 -64 2
-142 -3 -185 -10z m170 -528 c0 -5 12 -5 26 -2 35 9 73 -12 67 -37 -4 -16 -1
-19 18 -15 34 5 90 -26 119 -66 14 -18 48 -58 76 -88 57 -63 72 -84 126 -188
21 -41 47 -86 58 -102 25 -36 100 -190 100 -207 0 -8 7 -24 16 -37 23 -36 3
-38 -57 -6 -33 17 -60 25 -68 21 -8 -6 -3 -12 18 -21 17 -7 31 -16 31 -20 0
-5 -20 2 -46 16 -25 13 -50 24 -57 23 -7 0 -3 -5 8 -10 14 -6 4 -7 -35 -5 -31
3 -78 -2 -110 -11 -48 -13 -76 -19 -102 -22 -16 -2 -7 -20 10 -19 9 0 27 -3
40 -5 12 -3 22 -2 22 3 0 6 10 9 23 9 12 0 32 2 45 6 12 4 22 3 22 -2 0 -5 28
-9 63 -9 82 -1 136 -7 130 -16 -2 -5 2 -8 9 -8 8 0 21 -8 30 -17 9 -10 28 -26
42 -36 15 -11 26 -27 26 -41 0 -13 21 -72 47 -132 52 -121 58 -166 35 -269
-18 -80 -61 -196 -81 -217 -33 -35 -40 -47 -47 -75 -4 -15 -14 -36 -22 -45
-10 -12 -11 -18 -4 -18 18 0 15 -105 -2 -119 -8 -7 -22 -28 -31 -47 -9 -19
-38 -64 -65 -99 -52 -68 -74 -105 -65 -105 5 0 -19 -47 -45 -87 -8 -13 -20
-23 -26 -23 -6 0 -17 -7 -24 -15 -17 -21 -118 -71 -160 -79 -19 -4 -44 -10
-55 -13 -17 -5 -17 -3 4 14 16 13 20 22 13 27 -6 4 -21 -3 -33 -15 -19 -19
-29 -21 -91 -16 -38 3 -75 10 -82 16 -9 7 -16 7 -24 -1 -18 -18 -43 -19 -89
-3 -93 32 -166 90 -179 142 -4 13 -12 23 -19 23 -7 0 -21 17 -30 37 -10 20
-37 56 -60 79 -23 23 -44 45 -46 50 -2 5 -21 22 -41 37 -21 15 -37 31 -37 35
1 4 1 14 0 22 -1 12 -3 12 -10 2 -6 -10 -10 -7 -13 12 -3 15 -1 29 4 32 5 3 1
12 -9 20 -10 7 -13 14 -6 14 9 0 10 7 4 23 -12 30 -12 96 0 103 5 3 9 11 9 17
0 7 -4 6 -10 -3 -8 -13 -10 -12 -10 3 0 9 -4 17 -8 17 -5 0 -15 19 -23 42 -7
23 -23 53 -34 67 -42 53 -55 114 -57 271 -2 108 19 190 58 228 16 15 24 34 24
56 0 26 7 39 33 58 71 54 180 84 241 67 39 -11 45 -11 26 1 -10 7 2 8 40 5 72
-7 83 -9 97 -18 6 -4 15 -2 19 4 5 8 3 9 -6 4 -9 -6 -11 -4 -5 5 6 10 11 9 21
-4 8 -11 14 -13 19 -6 3 5 11 8 16 5 5 -4 6 2 2 11 -4 12 -8 14 -11 5 -3 -9
-9 -9 -26 3 -31 20 -91 35 -153 37 -29 2 -53 6 -53 11 0 11 -67 10 -74 -1 -7
-11 -56 -21 -56 -10 0 4 12 11 27 16 15 5 22 12 16 16 -5 3 -27 -3 -49 -13
-21 -11 -44 -20 -51 -20 -15 0 -18 36 -3 45 6 3 10 21 10 39 0 19 16 67 35
107 41 88 124 242 134 249 4 3 22 26 40 52 17 27 45 55 61 63 16 8 32 20 36
26 5 8 3 9 -6 4 -9 -5 -11 -4 -6 3 4 7 13 12 20 12 7 0 25 12 42 28 16 15 47
35 69 46 22 10 49 23 60 29 11 6 31 16 45 24 26 14 80 14 80 1z"/>
<path d="M1670 3889 c-60 -28 -33 -37 30 -10 27 12 68 20 92 20 42 -1 41 -2
-14 -10 -32 -4 -84 -22 -117 -39 -33 -18 -64 -29 -69 -26 -5 3 -17 -1 -27 -8
-18 -13 -17 -15 13 -30 36 -19 73 -21 89 -5 13 13 118 19 155 8 24 -6 31 -3
49 22 20 28 21 29 44 11 l23 -17 -21 -12 c-21 -11 -20 -12 13 -13 19 0 47 -7
63 -14 31 -17 32 -16 13 28 -40 96 -222 148 -336 95z"/>
<path d="M2547 3880 c-51 -9 -115 -47 -148 -88 -28 -36 -24 -40 26 -32 49 7
72 20 37 20 -28 0 -29 17 -2 25 11 3 20 11 20 16 0 20 18 8 30 -20 6 -16 18
-32 26 -35 8 -3 13 -2 10 3 -3 5 13 8 35 7 33 -2 44 2 56 21 8 12 19 20 24 17
14 -8 11 -24 -5 -24 -8 0 -18 -5 -22 -11 -5 -8 1 -10 19 -5 26 6 77 -10 77
-26 0 -14 54 -8 75 8 17 13 18 16 5 24 -8 5 -20 10 -26 10 -6 0 -19 9 -29 20
-18 20 -18 21 1 14 12 -5 8 2 -11 18 -54 45 -100 54 -198 38z"/>
<path d="M1960 3293 c0 -20 50 -60 87 -71 83 -25 174 -36 192 -25 10 6 40 14
67 18 61 8 89 22 110 53 15 22 15 24 -3 18 -10 -3 -36 -6 -58 -7 -22 0 -65 -6
-95 -11 -78 -15 -92 -16 -115 -4 -11 5 -51 11 -88 12 -38 2 -75 8 -83 15 -8 6
-14 7 -14 2z"/>
<path d="M2089 3076 c-2 -3 -59 -6 -124 -7 -141 -1 -185 -7 -185 -24 0 -16 47
-38 52 -23 4 11 82 -24 93 -41 3 -6 12 -8 19 -5 7 3 16 -2 19 -10 4 -9 12 -16
19 -16 7 0 25 -7 40 -14 l28 -15 -16 25 c-15 22 -15 24 0 24 10 0 15 -4 12 -8
-2 -4 4 -8 14 -8 19 0 19 1 -1 22 -12 13 -27 20 -34 18 -7 -3 -16 -1 -20 5 -3
7 0 8 9 5 9 -3 16 -2 16 4 0 6 64 8 169 7 168 -3 217 -10 173 -26 -12 -5 -22
-13 -22 -19 0 -18 28 -11 43 10 12 17 16 18 20 6 4 -9 -5 -18 -24 -26 -41 -18
-45 -29 -6 -21 38 9 77 32 77 46 0 5 23 20 50 32 28 12 50 27 50 32 0 5 -44
13 -97 17 -84 7 -125 7 -248 1 -11 0 -43 3 -70 7 -28 4 -53 5 -56 2z"/>
</g>
</svg>
